# xmcd
#
# Track frame offsets:
#	150
#	16041
#	32151
#	48252
#	66796
#	81038
#	95330
#	114112
#	130795
#	147903
#	162801
#	181358
#	195426
#	210023
#
# Disc length: 3049 seconds
#
# Revision: 1
# Processed by: cddbd v1.4PL0 Copyright (c) Steve Scherf et al.
# Submitted via: audiograbber 1.81.02
#
DISCID=a30be70e
DTITLE=Sandi Cenov - Neke pjesme ljubavne...
DYEAR=1900
DGENRE=
TTITLE0=Neka zaborave me svi
TTITLE1=Pjevaj sve
TTITLE2=Nije to strah
TTITLE3=Sunce moje to si ti
TTITLE4=Kuhinja
TTITLE5=Malena
TTITLE6=Tebe
TTITLE7=Nemam sto izgubiti
TTITLE8=Lud sam za tobom
TTITLE9=Vrijeme novih ljubavi
TTITLE10=Kljuc u bravi
TTITLE11=Zadnji romantik
TTITLE12=Malena (instrumental)
TTITLE13=E da mi je
EXTD=
EXTT0=
EXTT1=
EXTT2=
EXTT3=
EXTT4=
EXTT5=
EXTT6=
EXTT7=
EXTT8=
EXTT9=
EXTT10=
EXTT11=
EXTT12=
EXTT13=
PLAYORDER=
